<?xml version="1.0" standalone="no"?>
<!DOCTYPE svg PUBLIC "-//W3C//DTD SVG 20010904//EN"
 "http://www.w3.org/TR/2001/REC-SVG-20010904/DTD/svg10.dtd">
<svg version="1.0" xmlns="http://www.w3.org/2000/svg"
 width="256.000000pt" height="256.000000pt" viewBox="0 0 256.000000 256.000000"
 preserveAspectRatio="xMidYMid meet">
<metadata>
Created by potrace 1.14, written by Peter Selinger 2001-2017
</metadata>
<g transform="translate(0.000000,256.000000) scale(0.100000,-0.100000)"
fill="#000000" stroke="none">
<path d="M210 1489 c0 -51 4 -75 16 -86 13 -14 17 -14 25 -2 6 10 9 11 10 2 3
-28 4 -32 13 -40 5 -5 6 -2 1 6 -6 10 -2 11 15 6 17 -5 21 -4 15 5 -6 9 -4 11
4 5 7 -4 22 2 37 16 23 22 60 36 49 19 -3 -4 9 -10 26 -12 16 -3 33 0 36 5 3
6 1 7 -5 3 -6 -3 -13 -2 -17 4 -4 6 -11 7 -17 4 -7 -5 -8 -2 -3 5 5 9 10 10
18 2 7 -7 15 -7 26 2 12 9 13 9 7 0 -4 -8 -2 -13 6 -13 8 0 20 6 27 13 11 10
12 8 3 -9 -14 -27 -5 -36 21 -23 15 8 22 8 28 -2 7 -12 9 -12 9 0 0 9 8 12 25
9 14 -3 28 -1 32 5 3 5 1 7 -5 3 -6 -3 -13 -2 -17 4 -4 6 -11 7 -17 4 -7 -4
-8 -2 -4 5 6 8 12 9 20 2 9 -7 17 -7 26 2 10 9 11 9 6 0 -5 -9 0 -13 14 -13
13 0 19 4 14 12 -5 7 -3 8 5 3 9 -5 10 -10 2 -18 -6 -6 -11 -15 -11 -21 0 -5
8 0 18 12 17 19 19 19 30 4 11 -15 12 -14 6 8 -5 22 -4 23 7 9 18 -21 57 -31
66 -17 3 6 1 8 -5 4 -6 -3 -13 -2 -17 4 -4 6 -11 7 -17 4 -7 -4 -8 -2 -4 5 6
8 12 9 20 2 9 -7 17 -7 26 2 10 9 11 9 6 0 -4 -8 -2 -13 6 -13 8 0 20 6 27 13
11 10 11 8 2 -11 -7 -12 -16 -20 -21 -17 -5 3 -11 1 -14 -4 -7 -10 13 -9 31 2
6 4 14 1 17 -5 3 -7 4 -4 3 7 -2 20 4 22 34 10 10 -4 19 3 27 20 7 15 8 24 2
20 -5 -3 -10 -1 -10 5 0 6 -5 8 -12 4 -7 -4 -8 -3 -4 5 4 6 11 9 15 7 4 -3 8
4 8 15 1 10 -5 19 -13 19 -8 0 -14 10 -14 25 l0 25 -330 0 -330 0 0 -71z m674
-60 c-3 -5 -10 -7 -15 -3 -5 3 -7 10 -3 15 3 5 10 7 15 3 5 -3 7 -10 3 -15z
m-327 -4 c0 -8 -4 -12 -9 -9 -5 3 -6 10 -3 15 9 13 12 11 12 -6z m-27 -4 c0
-5 -7 -12 -16 -15 -14 -5 -15 -4 -4 9 14 17 20 19 20 6z"/>
<path d="M907 1540 c-3 -13 -1 -18 6 -13 7 4 8 0 4 -11 -4 -10 -3 -15 3 -11 6
3 13 -2 17 -12 3 -10 14 -30 24 -44 10 -14 16 -29 12 -33 -3 -3 -2 -6 4 -6 11
0 40 -59 35 -73 -1 -5 2 -6 8 -2 5 3 10 1 10 -4 0 -6 0 -13 0 -16 0 -3 8 -13
18 -23 9 -9 30 -43 45 -75 16 -31 33 -59 38 -62 5 -4 7 -11 4 -16 -4 -5 -1 -9
4 -9 6 0 11 -7 11 -15 0 -8 4 -15 9 -15 5 0 15 -15 22 -32 7 -18 23 -48 36
-67 12 -18 20 -38 16 -44 -3 -6 -1 -7 5 -3 7 4 12 2 12 -4 0 -18 24 -37 43
-34 9 1 17 -3 17 -9 0 -7 4 -6 9 2 6 9 6 22 0 32 -14 27 -11 35 6 13 13 -18
14 -18 9 8 -2 15 0 30 6 33 6 4 7 11 4 17 -4 7 -2 8 5 4 8 -6 9 -12 2 -20 -8
-9 -7 -13 4 -13 8 0 12 4 9 8 -2 4 3 12 12 17 15 9 15 10 -5 17 -20 6 -21 25
0 25 6 0 8 -4 5 -8 -3 -5 1 -9 8 -9 8 0 11 9 8 24 -2 13 -9 23 -15 23 -6 0 -7
3 -4 6 4 4 13 1 22 -6 12 -10 15 -10 15 2 0 8 -5 19 -11 25 -8 8 -7 13 2 18 7
5 10 4 6 -2 -4 -6 -1 -13 7 -16 20 -8 28 4 14 20 -9 12 -6 13 16 9 15 -3 24
-1 21 5 -4 5 -10 7 -15 4 -5 -3 -11 -1 -14 4 -4 5 3 13 14 16 17 5 19 9 9 21
-14 17 -9 25 19 27 16 1 18 4 10 14 -8 11 -7 12 8 7 10 -4 16 -3 11 1 -4 5 0
19 9 33 13 20 14 26 3 33 -10 6 -8 9 9 9 13 0 20 4 17 10 -4 6 -12 7 -18 3 -8
-5 -8 -2 0 9 7 8 9 19 5 23 -4 5 -1 5 6 1 10 -6 16 4 14 25 -1 3 5 6 13 6 11
0 9 -7 -5 -28 -17 -23 -18 -28 -4 -33 8 -3 13 -2 9 3 -7 13 5 42 15 36 5 -3 7
6 4 20 -3 20 -1 23 13 19 10 -3 7 2 -7 10 -14 8 -20 15 -13 16 7 0 10 7 7 18
-5 14 -4 14 4 2 6 -8 9 -17 7 -20 -2 -4 2 -7 8 -7 7 0 14 9 14 19 1 10 -3 16
-8 12 -6 -3 -5 3 2 14 15 24 31 19 22 -6 -3 -9 -3 -14 1 -11 12 11 16 50 4 43
-7 -4 -8 2 -3 17 l8 24 -22 -25 -21 -25 15 38 15 37 -64 0 c-71 0 -64 6 -130
-111 -105 -184 -162 -279 -169 -279 -4 0 -10 8 -14 18 -3 9 -15 30 -27 46 -13
19 -15 27 -5 22 7 -4 4 1 -9 11 -18 15 -20 21 -10 31 11 11 10 13 -1 10 -8 -2
-23 14 -35 37 -12 22 -29 49 -38 59 -17 19 -22 31 -19 49 0 4 -4 7 -9 7 -5 0
-10 5 -10 11 0 5 6 7 13 3 7 -4 9 -3 4 2 -5 5 -12 9 -17 9 -5 0 -19 16 -32 35
-22 33 -27 35 -85 38 -54 3 -61 1 -66 -18z m613 -255 c0 -12 -19 -12 -23 0 -4
9 -1 12 9 8 7 -3 14 -7 14 -8z m-30 -25 c0 -5 -5 -10 -11 -10 -5 0 -7 5 -4 10
3 6 8 10 11 10 2 0 4 -4 4 -10z m-46 -78 c3 -5 -1 -9 -9 -9 -8 0 -12 4 -9 9 3
4 7 8 9 8 2 0 6 -4 9 -8z m-135 -246 c11 -14 6 -15 -27 -7 -4 1 8 21 12 21 2
0 9 -6 15 -14z"/>
<path d="M1665 1483 c0 -66 3 -78 17 -78 9 0 20 -4 24 -8 4 -4 13 -2 21 5 11
8 12 7 7 -6 -4 -10 -13 -15 -20 -12 -8 3 -14 1 -14 -4 0 -13 37 -13 45 0 3 5
16 15 28 21 19 9 19 8 -3 -10 -18 -15 -20 -21 -9 -21 8 0 21 6 28 13 11 10 13
10 7 0 -4 -7 -2 -13 3 -13 6 0 11 9 11 20 0 22 7 25 30 11 8 -6 19 -7 25 -3
18 12 85 10 78 -2 -5 -8 -3 -8 8 0 19 14 45 11 41 -5 -1 -7 2 -10 8 -6 6 3 8
11 5 16 -9 13 9 11 24 -3 11 -10 13 -10 7 0 -4 6 -3 12 3 12 5 0 11 -3 14 -7
2 -5 2 -3 1 4 -2 6 4 14 12 17 21 8 24 8 24 -5 0 -5 -4 -7 -10 -4 -16 10 -11
-1 7 -16 11 -10 14 -10 9 -1 -4 6 -3 12 1 12 5 0 15 -6 22 -12 11 -10 13 -10
7 0 -4 6 -3 12 1 12 5 0 15 -6 22 -12 11 -11 12 -10 6 1 -6 11 -4 13 8 8 10
-4 14 -2 11 7 -3 7 2 13 10 13 8 0 13 -4 10 -9 -3 -4 1 -8 10 -8 8 0 16 -5 18
-12 3 -8 7 -6 11 5 4 10 2 16 -5 14 -6 -1 -13 5 -15 13 -4 13 -3 13 6 0 6 -8
11 -12 11 -7 0 4 12 -1 27 -10 15 -10 24 -12 20 -5 -10 15 -2 15 25 1 15 -8
19 -8 14 0 -4 6 0 11 9 11 9 0 14 -4 10 -9 -3 -5 -1 -12 4 -16 6 -3 8 3 6 15
-2 11 4 24 13 31 16 10 16 10 0 5 -15 -4 -16 0 -11 26 4 22 3 29 -5 24 -11 -7
-16 12 -15 52 1 9 -72 12 -331 12 l-332 0 1 -77z m263 -68 c-3 -3 -9 2 -12 12
-6 14 -5 15 5 6 7 -7 10 -15 7 -18z m57 10 c6 0 14 4 18 10 5 6 7 4 4 -5 -2
-8 -15 -15 -28 -16 -30 0 -41 5 -33 17 3 5 11 6 17 2 7 -4 17 -8 22 -8z m74
12 c-2 -1 -13 -9 -24 -17 -19 -14 -19 -14 -6 3 7 9 18 17 24 17 6 0 8 -1 6 -3z
m64 -18 c-8 -8 -13 -7 -18 2 -5 8 -4 10 3 5 7 -4 12 -2 12 5 0 7 3 9 7 6 4 -4
2 -12 -4 -18z m28 -2 c-10 -9 -11 -8 -5 6 3 10 9 15 12 12 3 -3 0 -11 -7 -18z
m-245 1 c5 -8 1 -9 -11 -5 -9 4 -24 2 -31 -4 -11 -9 -14 -9 -14 0 0 7 -4 10
-9 6 -5 -3 -12 -2 -15 3 -2 4 13 8 35 9 21 1 42 -3 45 -9z"/>
<path d="M357 1402 c-12 -13 -13 -21 -6 -32 9 -13 10 -12 6 2 -7 21 3 31 19
17 9 -8 11 -5 7 10 -6 25 -6 25 -26 3z"/>
<path d="M846 1407 c3 -10 9 -15 12 -12 3 3 0 11 -7 18 -10 9 -11 8 -5 -6z"/>
<path d="M316 1362 c-4 -4 -22 -8 -39 -8 -70 -3 -67 0 -67 -59 0 -54 6 -62 42
-56 4 0 5 -5 2 -13 -7 -18 12 -30 22 -15 5 8 3 9 -7 4 -12 -8 -12 -6 0 8 14
18 22 22 20 10 -3 -21 3 -24 19 -12 15 13 16 12 3 -3 -7 -10 -9 -18 -3 -18 15
0 33 26 24 36 -4 4 0 3 9 -4 9 -6 19 -9 22 -5 4 3 7 0 7 -8 0 -12 2 -11 11 1
8 11 9 9 3 -10 -7 -25 -6 -25 14 -6 12 10 19 24 15 30 -4 6 2 4 13 -5 24 -20
70 -20 66 0 -2 11 0 12 11 3 8 -7 17 -9 20 -5 4 3 7 0 7 -8 0 -11 2 -11 10 1
5 8 10 10 10 4 0 -18 -12 -24 -30 -14 -15 8 -17 6 -12 -12 3 -13 7 -17 10 -10
3 10 7 10 20 0 10 -7 14 -8 10 -4 -5 5 1 16 12 23 11 8 17 20 13 26 -3 7 2 5
13 -4 24 -20 70 -20 66 0 -2 11 0 12 11 3 8 -7 17 -9 20 -5 4 3 7 0 7 -8 0
-11 2 -11 10 1 5 8 10 10 10 4 0 -18 -12 -24 -30 -14 -15 8 -17 6 -12 -12 3
-13 7 -17 10 -10 3 10 7 10 20 0 10 -7 14 -8 10 -4 -5 5 1 16 12 23 11 8 17
20 13 26 -3 7 2 5 13 -4 24 -20 70 -20 66 0 -2 11 0 12 11 3 8 -7 17 -9 20 -5
4 3 7 1 7 -6 0 -7 -6 -11 -14 -8 -10 4 -12 0 -8 -15 4 -15 7 -17 13 -6 5 7 9
9 9 4 0 -5 6 -4 13 3 10 8 17 7 26 -2 7 -6 12 -7 11 -2 -2 6 -1 12 0 15 6 17
7 39 1 36 -4 -3 -12 4 -18 14 -10 15 -9 17 10 14 12 -2 16 -2 9 2 -6 3 -10 10
-6 15 3 5 -2 12 -10 15 -9 3 -16 15 -16 25 0 10 -6 19 -12 20 -7 0 -125 1
-263 2 -137 1 -255 5 -261 9 -6 4 -14 4 -18 0z m545 -155 c-10 -9 -11 -8 -5 6
3 10 9 15 12 12 3 -3 0 -11 -7 -18z m39 19 c0 -3 -4 -8 -10 -11 -5 -3 -10 -1
-10 4 0 6 5 11 10 11 6 0 10 -2 10 -4z"/>
<path d="M1736 1362 c-4 -4 -17 -8 -29 -8 -12 -1 -27 -2 -33 -3 -16 -2 -12
-100 6 -111 8 -5 17 -7 21 -4 4 2 10 0 14 -6 4 -6 11 -7 17 -4 7 4 8 2 4 -5
-6 -9 -11 -9 -21 -1 -9 8 -14 7 -18 -4 -4 -10 -1 -13 7 -10 7 3 13 -2 13 -11
0 -8 -5 -15 -11 -14 -38 5 -41 0 -41 -76 -1 -67 1 -75 18 -75 10 0 15 -5 12
-11 -8 -12 27 -8 36 4 3 5 9 2 12 -6 4 -11 0 -15 -14 -12 -10 2 -19 0 -19 -4
0 -13 50 -10 50 3 1 6 7 0 14 -13 11 -20 14 -21 19 -7 4 10 3 15 -1 12 -5 -3
-9 1 -9 9 0 9 4 11 11 6 6 -5 21 -7 34 -5 12 2 22 -1 22 -7 0 -5 -4 -8 -9 -5
-11 7 -8 -20 3 -31 4 -4 6 -1 4 7 -2 8 2 14 9 13 7 -2 10 3 7 10 -3 8 2 14 11
14 9 0 14 -5 12 -12 -3 -6 3 -11 13 -11 14 0 16 4 10 16 -6 12 -5 17 5 17 8 0
12 -4 10 -8 -3 -4 8 -15 23 -24 l27 -18 -19 22 c-11 11 -16 24 -13 28 4 3 7 1
7 -6 0 -7 5 -9 10 -6 6 3 10 2 10 -3 0 -6 7 -13 16 -16 13 -5 14 -3 6 6 -8 10
-4 13 17 12 15 0 33 -4 39 -8 8 -5 10 -2 6 8 -3 9 -1 16 6 16 6 0 9 -4 6 -8
-2 -4 -1 -14 5 -22 7 -12 9 -12 9 -1 0 10 6 9 28 -4 l27 -18 -19 22 c-11 11
-16 24 -13 28 4 3 7 1 7 -6 0 -7 5 -9 10 -6 6 3 10 2 10 -3 0 -6 7 -13 16 -16
13 -5 14 -3 6 6 -8 10 -4 13 17 12 15 0 33 -4 39 -8 8 -5 10 -2 6 8 -3 9 -1
16 5 16 6 0 10 -3 10 -7 -3 -21 2 -34 11 -28 6 4 8 11 5 16 -3 5 2 6 11 2 11
-4 15 -3 11 4 -5 7 1 9 15 5 l22 -5 -22 -8 c-12 -5 -22 -14 -22 -21 0 -10 2
-10 9 1 5 7 20 14 35 14 14 0 26 4 26 9 0 5 -4 6 -10 3 -6 -4 -7 1 -3 11 5 14
7 14 17 -5 11 -20 12 -20 24 -1 7 11 9 20 5 19 -21 -4 -24 3 -10 24 10 16 12
28 6 38 -8 11 -9 10 -7 -5 2 -10 -2 -21 -9 -23 -7 -3 -10 5 -9 21 2 14 -1 26
-6 26 -6 0 -8 7 -4 15 3 8 0 15 -7 16 -7 0 -127 2 -267 3 -140 2 -258 4 -261
4 -4 1 -6 10 -5 20 1 12 -5 16 -18 14 -18 -3 -18 -2 -6 15 14 17 14 17 -7 0
-14 -12 -23 -15 -28 -8 -7 13 34 31 53 24 6 -3 12 -10 12 -16 0 -6 6 -2 14 8
8 11 12 24 8 30 -3 5 1 4 10 -2 8 -7 19 -9 23 -5 5 4 5 1 1 -5 -4 -7 -3 -13 3
-13 5 0 12 6 15 13 3 6 3 2 0 -10 -3 -15 -1 -21 10 -19 9 1 19 6 23 11 4 4 3
5 -3 2 -6 -3 -11 0 -11 7 0 8 11 12 26 11 14 -1 25 -6 24 -12 -1 -5 3 -10 10
-11 7 0 22 -3 34 -6 13 -2 25 -1 28 4 3 5 -3 7 -14 5 -24 -5 -48 20 -30 31 7
4 9 3 5 -4 -3 -6 -2 -13 4 -17 5 -3 10 0 10 7 0 10 2 10 9 0 4 -8 11 -13 15
-13 20 3 26 0 20 -11 -4 -7 2 -5 14 6 12 10 19 24 15 30 -4 6 0 6 9 -1 8 -7
19 -9 23 -5 5 4 5 2 1 -5 -8 -15 11 -27 45 -28 18 -1 25 4 22 12 -3 7 -10 10
-17 6 -19 -12 -33 -11 -33 1 0 14 62 15 74 2 5 -5 2 -6 -7 -1 -8 5 -12 4 -7 0
13 -15 100 -28 92 -14 -3 4 -14 6 -25 4 -22 -4 -47 20 -30 30 6 4 10 3 9 -2
-3 -20 2 -27 11 -13 8 12 10 12 10 1 0 -11 3 -11 17 0 9 8 14 9 11 4 -4 -6 2
-16 12 -23 14 -9 21 -9 26 0 5 7 2 8 -7 3 -11 -7 -12 -6 -2 7 7 8 10 18 6 21
-3 4 -4 7 -1 7 3 0 12 -8 19 -17 9 -11 10 -14 2 -9 -9 5 -11 2 -6 -10 4 -11 8
-13 11 -6 2 7 8 12 13 12 6 0 7 -6 3 -12 -5 -9 -2 -9 9 1 20 16 22 22 5 19
-16 -4 -18 51 -4 71 8 11 8 13 -1 7 -8 -4 -14 -2 -15 6 0 7 -2 18 -3 23 -2 6
-3 15 -4 20 -1 6 -100 10 -278 9 -153 -1 -283 3 -289 7 -6 5 -14 5 -18 1z"/>
<path d="M2350 1280 c-9 -6 -10 -10 -3 -10 6 0 15 5 18 10 8 12 4 12 -15 0z"/>
<path d="M2343 1246 c0 -7 6 -13 14 -13 7 0 13 4 13 8 0 4 -6 9 -13 12 -8 3
-14 0 -14 -7z"/>
<path d="M326 1199 c-13 -19 -14 -19 -32 -2 -17 17 -17 17 -11 0 5 -14 2 -16
-19 -13 -48 9 -54 0 -54 -80 0 -59 3 -74 15 -75 8 -1 20 -2 26 -3 6 0 17 -10
25 -20 8 -11 14 -14 14 -8 0 7 5 12 11 12 5 0 7 -4 4 -10 -9 -14 8 -13 23 2 9
9 15 9 24 0 15 -15 32 -16 23 -1 -4 6 0 9 11 7 11 -2 24 -11 30 -22 10 -17 12
-17 17 -2 4 10 3 15 -1 12 -5 -3 -9 1 -9 9 0 9 4 11 11 6 6 -5 21 -7 34 -5 12
2 22 -1 22 -7 0 -5 -4 -8 -8 -5 -5 3 -9 -1 -9 -9 0 -22 15 -18 22 5 5 16 10
18 25 10 23 -12 43 -13 36 -1 -5 7 14 8 46 2 4 0 5 -9 2 -18 -5 -15 -4 -15 4
-3 7 9 7 19 2 25 -7 8 -5 12 5 12 8 0 11 -5 8 -10 -4 -6 4 -7 20 -3 14 3 29 2
32 -4 3 -5 11 -10 16 -10 6 0 7 5 4 11 -4 6 0 9 11 7 11 -2 24 -11 30 -22 10
-17 12 -17 17 -2 4 10 3 15 -1 12 -5 -3 -9 1 -9 9 0 10 4 12 12 5 7 -5 16 -6
20 -2 5 4 5 2 2 -4 -3 -6 0 -11 8 -11 8 0 12 4 9 9 -3 4 0 8 5 8 6 0 11 -6 11
-14 0 -15 64 -16 78 -1 4 4 2 5 -4 2 -14 -8 -27 20 -13 28 5 4 8 14 7 23 -2 9
3 17 11 17 8 0 15 6 17 13 1 7 0 8 -3 2 -8 -18 -33 9 -33 36 0 18 -6 24 -22
25 -13 0 -133 1 -268 2 -227 2 -245 3 -248 20 -2 10 -1 25 2 34 5 12 9 13 21
3 9 -7 15 -8 15 -2 0 20 -30 21 -44 1z m524 -197 c0 -5 -7 -9 -15 -9 -8 0 -15
4 -15 9 0 4 7 8 15 8 8 0 15 -4 15 -8z"/>
<path d="M415 1210 c-3 -5 -5 -10 -3 -11 27 -6 39 -5 45 4 3 7 3 9 -2 5 -4 -4
-14 -3 -21 3 -8 7 -14 7 -19 -1z"/>
<path d="M575 1210 c-3 -5 -5 -10 -3 -11 27 -6 39 -5 45 4 3 7 3 9 -2 5 -4 -4
-14 -3 -21 3 -8 7 -14 7 -19 -1z"/>
<path d="M735 1210 c-3 -5 -5 -10 -3 -11 27 -6 39 -5 45 4 3 7 3 9 -2 5 -4 -4
-14 -3 -21 3 -8 7 -14 7 -19 -1z"/>
<path d="M1819 1218 c-8 -27 -6 -38 5 -29 7 6 17 7 22 3 4 -4 2 1 -5 11 -12
16 -20 21 -22 15z"/>
<path d="M1907 1203 c3 -7 6 -13 8 -13 2 0 5 6 8 13 3 8 -1 14 -8 14 -7 0 -11
-6 -8 -14z"/>
<path d="M2054 1208 c-4 -7 -4 -10 1 -6 4 4 14 0 22 -10 13 -15 13 -15 3 6
-12 25 -16 27 -26 10z"/>
<path d="M480 1200 c-9 -6 -10 -10 -3 -10 6 0 15 5 18 10 8 12 4 12 -15 0z"/>
<path d="M640 1200 c-9 -6 -10 -10 -3 -10 6 0 15 5 18 10 8 12 4 12 -15 0z"/>
<path d="M800 1200 c-9 -6 -10 -10 -3 -10 6 0 15 5 18 10 8 12 4 12 -15 0z"/>
<path d="M1460 1196 c0 -2 7 -7 16 -10 8 -3 12 -2 9 4 -6 10 -25 14 -25 6z"/>
<path d="M885 1049 c4 -5 2 -15 -4 -22 -7 -10 -5 -13 9 -14 22 -2 24 33 2 42
-7 3 -10 0 -7 -6z"/>
<path d="M257 999 c4 -13 8 -18 11 -10 2 7 -1 18 -6 23 -8 8 -9 4 -5 -13z"/>
<path d="M335 990 c3 -5 8 -10 11 -10 2 0 4 5 4 10 0 6 -5 10 -11 10 -5 0 -7
-4 -4 -10z"/>
<path d="M575 990 c3 -5 8 -10 11 -10 2 0 4 5 4 10 0 6 -5 10 -11 10 -5 0 -7
-4 -4 -10z"/>
<path d="M655 990 c3 -5 8 -10 11 -10 2 0 4 5 4 10 0 6 -5 10 -11 10 -5 0 -7
-4 -4 -10z"/>
<path d="M2021 991 c-8 -5 -9 -11 -3 -15 5 -3 12 1 16 9 6 17 6 18 -13 6z"/>
<path d="M2181 991 c-8 -5 -9 -11 -3 -15 5 -3 12 1 16 9 6 17 6 18 -13 6z"/>
</g>
</svg>
